<svg width="48" height="48" viewBox="0 0 48 48" fill="none" xmlns="http://www.w3.org/2000/svg">
<circle cx="24" cy="24" r="24" fill="#7557D3" fill-opacity="0.1"/>
<path d="M34.0002 28.2217C34.0002 30.8566 31.8847 32.991 29.2498 33.0004H29.2403H19.8811C17.2556 33.0004 15.1118 30.8755 15.1118 28.2406V28.2311C15.1118 28.2311 15.1175 24.0511 15.125 21.9489C15.126 21.5541 15.5793 21.3331 15.8881 21.5786C18.1321 23.3589 22.1449 26.6048 22.195 26.6473C22.8655 27.1847 23.7155 27.4879 24.5843 27.4879C25.4532 27.4879 26.3032 27.1847 26.9737 26.637C27.0238 26.6039 30.9469 23.4552 33.2248 21.6457C33.5346 21.3992 33.9898 21.6202 33.9908 22.014C34.0002 24.1002 34.0002 28.2217 34.0002 28.2217" fill="#7557D3"/>
<path d="M33.5056 18.5259C32.6877 16.9846 31.0784 16.0005 29.3067 16.0005H19.8814C18.1097 16.0005 16.5004 16.9846 15.6825 18.5259C15.4993 18.8706 15.5862 19.3003 15.8912 19.5439L22.9035 25.1529C23.3946 25.5495 23.9896 25.7469 24.5846 25.7469C24.5884 25.7469 24.5912 25.7469 24.594 25.7469C24.5969 25.7469 24.6006 25.7469 24.6035 25.7469C25.1985 25.7469 25.7934 25.5495 26.2845 25.1529L33.2969 19.5439C33.6019 19.3003 33.6888 18.8706 33.5056 18.5259" fill="#7557D3"/>
</svg>
